<mxfile host="app.diagrams.net" modified="2021-08-20T03:16:15.329Z" agent="5.0 (Windows NT 10.0; Win64; x64) AppleWebKit/537.36 (KHTML, like Gecko) Chrome/91.0.4472.114 Safari/537.36" etag="xTegOyPpYUZdBudrMoSU" version="14.9.4" type="github">
  <diagram id="C5RBs43oDa-KdzZeNtuy" name="Page-1">
    <mxGraphModel dx="569" dy="305" grid="1" gridSize="10" guides="1" tooltips="1" connect="1" arrows="1" fold="1" page="1" pageScale="1" pageWidth="827" pageHeight="1169" math="0" shadow="0">
      <root>
        <mxCell id="WIyWlLk6GJQsqaUBKTNV-0" />
        <mxCell id="WIyWlLk6GJQsqaUBKTNV-1" parent="WIyWlLk6GJQsqaUBKTNV-0" />
        <mxCell id="BRvHJIy0aX5r0QYT1-yi-2" value="" style="endArrow=block;dashed=1;endFill=0;endSize=12;html=1;" parent="WIyWlLk6GJQsqaUBKTNV-1" edge="1">
          <mxGeometry width="160" relative="1" as="geometry">
            <mxPoint x="364" y="280" as="sourcePoint" />
            <mxPoint x="364" y="230" as="targetPoint" />
          </mxGeometry>
        </mxCell>
        <mxCell id="BRvHJIy0aX5r0QYT1-yi-3" value="«interface»&lt;br&gt;&lt;b&gt;BeanFactory&lt;br&gt;&lt;/b&gt;" style="html=1;" parent="WIyWlLk6GJQsqaUBKTNV-1" vertex="1">
          <mxGeometry x="330" y="20" width="110" height="50" as="geometry" />
        </mxCell>
        <mxCell id="BRvHJIy0aX5r0QYT1-yi-4" value="«interface»&lt;br&gt;&lt;b&gt;HierarchicalBeanFactory&lt;br&gt;&lt;/b&gt;" style="html=1;" parent="WIyWlLk6GJQsqaUBKTNV-1" vertex="1">
          <mxGeometry x="244" y="160" width="150" height="50" as="geometry" />
        </mxCell>
        <mxCell id="BRvHJIy0aX5r0QYT1-yi-5" value="«interface»&lt;br&gt;&lt;b&gt;AutowireCapableBeanFactory&lt;br&gt;&lt;/b&gt;" style="html=1;" parent="WIyWlLk6GJQsqaUBKTNV-1" vertex="1">
          <mxGeometry x="424" y="160" width="170" height="50" as="geometry" />
        </mxCell>
        <mxCell id="BRvHJIy0aX5r0QYT1-yi-6" value="«interface»&lt;br&gt;&lt;b&gt;ListableBeanFactory&lt;br&gt;&lt;/b&gt;" style="html=1;" parent="WIyWlLk6GJQsqaUBKTNV-1" vertex="1">
          <mxGeometry x="614" y="160" width="150" height="50" as="geometry" />
        </mxCell>
        <mxCell id="BRvHJIy0aX5r0QYT1-yi-7" value="«interface»&lt;br&gt;&lt;b&gt;ApplicationContext&lt;br&gt;&lt;br&gt;&lt;/b&gt;" style="html=1;" parent="WIyWlLk6GJQsqaUBKTNV-1" vertex="1">
          <mxGeometry x="304" y="310" width="150" height="50" as="geometry" />
        </mxCell>
        <mxCell id="BRvHJIy0aX5r0QYT1-yi-9" value="SimpleJndiBeanFacotry" style="swimlane;fontStyle=1;align=center;verticalAlign=top;childLayout=stackLayout;horizontal=1;startSize=26;horizontalStack=0;resizeParent=1;resizeParentMax=0;resizeLast=0;collapsible=1;marginBottom=0;" parent="WIyWlLk6GJQsqaUBKTNV-1" vertex="1">
          <mxGeometry x="64" y="160" width="160" height="86" as="geometry" />
        </mxCell>
        <mxCell id="BRvHJIy0aX5r0QYT1-yi-10" value="+ field: type" style="text;strokeColor=none;fillColor=none;align=left;verticalAlign=top;spacingLeft=4;spacingRight=4;overflow=hidden;rotatable=0;points=[[0,0.5],[1,0.5]];portConstraint=eastwest;" parent="BRvHJIy0aX5r0QYT1-yi-9" vertex="1">
          <mxGeometry y="26" width="160" height="26" as="geometry" />
        </mxCell>
        <mxCell id="BRvHJIy0aX5r0QYT1-yi-11" value="" style="line;strokeWidth=1;fillColor=none;align=left;verticalAlign=middle;spacingTop=-1;spacingLeft=3;spacingRight=3;rotatable=0;labelPosition=right;points=[];portConstraint=eastwest;" parent="BRvHJIy0aX5r0QYT1-yi-9" vertex="1">
          <mxGeometry y="52" width="160" height="8" as="geometry" />
        </mxCell>
        <mxCell id="BRvHJIy0aX5r0QYT1-yi-12" value="+ method(type): type" style="text;strokeColor=none;fillColor=none;align=left;verticalAlign=top;spacingLeft=4;spacingRight=4;overflow=hidden;rotatable=0;points=[[0,0.5],[1,0.5]];portConstraint=eastwest;" parent="BRvHJIy0aX5r0QYT1-yi-9" vertex="1">
          <mxGeometry y="60" width="160" height="26" as="geometry" />
        </mxCell>
        <mxCell id="vvrtghQhTsa9mF3jYAqi-0" value="" style="endArrow=block;dashed=1;endFill=0;endSize=12;html=1;exitX=0.5;exitY=0;exitDx=0;exitDy=0;" edge="1" parent="WIyWlLk6GJQsqaUBKTNV-1" source="BRvHJIy0aX5r0QYT1-yi-9">
          <mxGeometry width="160" relative="1" as="geometry">
            <mxPoint x="220" y="70" as="sourcePoint" />
            <mxPoint x="380" y="70" as="targetPoint" />
            <Array as="points">
              <mxPoint x="144" y="110" />
              <mxPoint x="380" y="110" />
            </Array>
          </mxGeometry>
        </mxCell>
        <mxCell id="vvrtghQhTsa9mF3jYAqi-1" value="Extends" style="endArrow=block;endSize=16;endFill=0;html=1;exitX=0.5;exitY=0;exitDx=0;exitDy=0;" edge="1" parent="WIyWlLk6GJQsqaUBKTNV-1" source="BRvHJIy0aX5r0QYT1-yi-4">
          <mxGeometry x="0.0728" y="-10" width="160" relative="1" as="geometry">
            <mxPoint x="220" y="470" as="sourcePoint" />
            <mxPoint x="380" y="70" as="targetPoint" />
            <Array as="points">
              <mxPoint x="319" y="110" />
              <mxPoint x="380" y="110" />
              <mxPoint x="380" y="80" />
            </Array>
            <mxPoint as="offset" />
          </mxGeometry>
        </mxCell>
        <mxCell id="vvrtghQhTsa9mF3jYAqi-2" value="Extends" style="endArrow=block;endSize=16;endFill=0;html=1;exitX=0.453;exitY=0.02;exitDx=0;exitDy=0;exitPerimeter=0;entryX=0.5;entryY=1;entryDx=0;entryDy=0;" edge="1" parent="WIyWlLk6GJQsqaUBKTNV-1" source="BRvHJIy0aX5r0QYT1-yi-5" target="BRvHJIy0aX5r0QYT1-yi-3">
          <mxGeometry width="160" relative="1" as="geometry">
            <mxPoint x="385" y="70" as="sourcePoint" />
            <mxPoint x="530" y="110" as="targetPoint" />
            <Array as="points">
              <mxPoint x="501" y="110" />
              <mxPoint x="385" y="110" />
              <mxPoint x="385" y="90" />
            </Array>
          </mxGeometry>
        </mxCell>
      </root>
    </mxGraphModel>
  </diagram>
</mxfile>
